<svg width="128" height="24" viewBox="0 0 128 24" fill="none" xmlns="http://www.w3.org/2000/svg">
<path d="M0 1.86208H3.99068V15.5265H5.91669V1.86208H9.90805V0.000732422H0V1.86208Z" fill="#08104D"/>
<path d="M13.6488 13.6645V8.69363H19.8636V6.83228H11.7228V15.5259H21.6308V13.6645L13.6488 13.6645Z" fill="#08104D"/>
<path d="M21.6312 1.86157V0H11.7232V1.86157H21.6312Z" fill="#08104D"/>
<path d="M13.6492 5.278V3.41577H11.7225V5.278H13.6492Z" fill="#FF4B36"/>
<path d="M27.4868 15.5258C30.2186 15.5258 32.4408 13.3779 32.4408 10.7381V10.6614H30.5144V10.7381C30.5144 12.3517 29.1562 13.6642 27.4868 13.6642C25.8171 13.6642 24.459 12.3517 24.459 10.7381V4.78772C24.459 3.17411 25.8171 1.86135 27.4868 1.86135C29.1562 1.86135 30.5144 3.1741 30.5144 4.78772V4.86442H32.4408V4.78772C32.4408 2.14766 30.2186 0 27.4868 0C24.755 0 22.5328 2.14766 22.5328 4.78772V10.7381C22.5328 13.3779 24.7553 15.5258 27.4868 15.5258Z" fill="#08104D"/>
<path d="M36.1813 12.1099H42.2369V15.5258H44.1629V0H42.2369V10.2479H36.1813V0H34.2553V15.5258H36.1813V12.1099Z" fill="#08104D"/>
<path d="M47.9039 4.38569L53.9594 10.2384V15.5258H55.8852V0H53.9594V7.60498L47.9039 1.75269V0H45.9778V15.5258H47.9039V4.38569Z" fill="#08104D"/>
<path d="M62.6544 0C59.9226 0 57.7004 2.14788 57.7004 4.78772V5.27769H59.6266V4.78772C59.6266 3.17433 60.985 1.86157 62.6544 1.86157C64.3238 1.86157 65.6822 3.17433 65.6822 4.78772V4.86442H67.6084V4.78772C67.6084 2.14788 65.3859 0 62.6544 0Z" fill="#08104D"/>
<path d="M65.6822 10.738C65.6822 12.3516 64.3238 13.6642 62.6544 13.6642C60.9847 13.6642 59.6266 12.3516 59.6266 10.738V10.248H57.7004V10.738C57.7004 13.3781 59.9226 15.5257 62.6544 15.5257C65.3859 15.5257 67.6084 13.3781 67.6084 10.738V10.6613H65.6822V10.738Z" fill="#08104D"/>
<path d="M59.6273 8.69429V6.83228H57.7004V8.69429H59.6273Z" fill="#FF4B36"/>
<path d="M67.6084 8.69429V6.83228H65.6815V8.69429H67.6084Z" fill="#FF4B36"/>
<path d="M79.331 13.6642H71.3496V0H69.4229V15.5258H79.331V13.6642Z" fill="#08104D"/>
<path fill-rule="evenodd" clip-rule="evenodd" d="M89.9818 10.7376C89.9818 13.3397 87.7997 15.4486 85.1074 15.4486C82.4153 15.4486 80.2332 13.3397 80.2332 10.7376V4.78721C80.2332 2.18529 82.4153 0.076416 85.1074 0.076416C87.7997 0.076416 89.9818 2.18529 89.9818 4.78721V10.7376ZM85.1074 1.78428C83.3914 1.78428 82.0005 3.12921 82.0005 4.78735V10.7377C82.0005 12.3967 83.3914 13.7408 85.1074 13.7408C86.8238 13.7408 88.2148 12.3967 88.2148 10.7377V4.78735C88.2148 3.12921 86.8238 1.78428 85.1074 1.78428Z" fill="#08104D"/>
<path d="M96.7501 15.5258C97.8455 15.5258 98.9142 15.1725 99.7777 14.5278V15.5258H101.704V6.83223H95.3306V8.69358H99.7777V10.7381C99.7777 12.3517 98.4195 13.6642 96.7501 13.6642C95.0804 13.6642 93.7223 12.3517 93.7223 10.7381V4.78772C93.7223 3.17411 95.0804 1.86135 96.7501 1.86135C98.4195 1.86135 99.7777 3.1741 99.7777 4.78772V4.86442H101.704V4.78772C101.704 2.14766 99.4819 0 96.7501 0C94.0183 0 91.7961 2.14766 91.7961 4.78772V10.7381C91.7961 13.3779 94.0186 15.5258 96.7501 15.5258V15.5258Z" fill="#08104D"/>
<path d="M105.445 15.526V0H103.519V15.526H105.445Z" fill="#08104D"/>
<path d="M117.187 11.1789C117.187 8.78219 115.169 6.83223 112.689 6.83223H111.757C110.339 6.83223 109.185 5.71718 109.185 4.34668C109.185 2.9764 110.339 1.86135 111.757 1.86135H112.689C114.107 1.86135 115.261 2.9764 115.261 4.34668V4.42338H117.187V4.34668C117.187 1.94996 115.169 0 112.689 0H111.757C109.277 0 107.259 1.94996 107.259 4.34668C107.259 6.74362 109.277 8.69358 111.757 8.69358H112.689C114.107 8.69358 115.261 9.80863 115.261 11.1789C115.261 12.5494 114.107 13.6642 112.689 13.6642H111.757C110.339 13.6642 109.185 12.5494 109.185 11.1789V11.1022H107.259V11.1789C107.259 13.5759 109.277 15.5258 111.757 15.5258H112.689C115.169 15.5258 117.187 13.5759 117.187 11.1789V11.1789Z" fill="#08104D"/>
<path d="M118.092 1.86135H122.083V15.5258H124.009V1.86135H128V0H118.092V1.86135Z" fill="#08104D"/>
<path fill-rule="evenodd" clip-rule="evenodd" d="M9.82022 22.5592C9.82022 22.0622 9.52076 21.8042 8.68749 21.6973C7.58081 21.5526 7.12511 21.1059 7.12511 20.3761V20.3069C7.12511 19.4701 7.76309 18.9417 8.79817 18.9417C9.96344 18.9417 10.4647 19.4953 10.4647 20.5585V20.7095H9.78767C9.78767 19.8791 9.50124 19.5205 8.80468 19.5205H8.75911C8.20576 19.5205 7.82168 19.8099 7.82168 20.2566V20.3069C7.82168 20.7662 8.05604 21.0367 8.91535 21.1499C10.022 21.2946 10.5168 21.7036 10.5168 22.5089V22.5781C10.5168 23.4715 9.8723 23.9999 8.79817 23.9999C7.67195 23.9999 7.07304 23.4337 7.07304 22.3579V22.295H7.75007C7.75007 23.0751 8.16019 23.4211 8.77213 23.4211H8.8242C9.43614 23.4211 9.82022 23.1065 9.82022 22.6095V22.5592ZM0.677031 19.0169H0V23.9242H0.677031V19.0169ZM2.59909 19.0169V23.9242H5.52855V23.3454H3.27612V21.7097H5.20306V21.1309H3.27612V19.5958H5.52855V19.017L2.59909 19.0169Z" fill="#08104D"/>
</svg>
